<svg xmlns="http://www.w3.org/2000/svg" width="520" height="92" viewBox="0 0 520 92" role="img" aria-labelledby="title desc">
  <title id="title">AOBA DENTAL CLINIC</title>
  <desc id="desc">青葉台の予防歯科・精密治療を表す歯と青葉のロゴ</desc>
  <defs>
    <linearGradient id="markGradient" x1="12" y1="10" x2="78" y2="82" gradientUnits="userSpaceOnUse">
      <stop offset="0" stop-color="#1BA6A6"/>
      <stop offset="1" stop-color="#8AD7C4"/>
    </linearGradient>
    <linearGradient id="leafGradient" x1="46" y1="20" x2="46" y2="66" gradientUnits="userSpaceOnUse">
      <stop offset="0" stop-color="#FFFFFF"/>
      <stop offset="1" stop-color="#E8F8F4"/>
    </linearGradient>
    <filter id="softShadow" x="-20%" y="-20%" width="140%" height="150%" color-interpolation-filters="sRGB">
      <feDropShadow dx="0" dy="12" stdDeviation="10" flood-color="#1BA6A6" flood-opacity="0.18"/>
    </filter>
  </defs>

  <g filter="url(#softShadow)">
    <rect x="4" y="4" width="84" height="84" rx="24" fill="url(#markGradient)"/>
  </g>
  <path d="M46 23C33.8 23 25.8 31.5 25.8 43.6C25.8 59.4 33.1 76 39.3 76C43.2 76 42.4 64.8 46 64.8C49.6 64.8 48.8 76 52.7 76C58.9 76 66.2 59.4 66.2 43.6C66.2 31.5 58.2 23 46 23Z" fill="url(#leafGradient)"/>
  <path d="M46 23C58.2 23 66.2 31.5 66.2 43.6C66.2 48.2 65.6 52.8 64.6 57.1C60.2 58.9 55.1 59.9 49.7 59.9C38.6 59.9 29.2 55.6 25.9 49.6C25.8 47.6 25.8 45.6 25.8 43.6C25.8 31.5 33.8 23 46 23Z" fill="#FFFFFF"/>
  <path d="M48.4 19.5C55.7 12.5 65.8 13 72 19.3C66.8 27.3 56.4 30.2 47.7 25.6C46.7 25.1 46.5 23.8 47.2 23L48.4 19.5Z" fill="#B4E59A"/>
  <path d="M52.5 23.9C58.2 22.8 63.5 20.6 68.2 17.5" fill="none" stroke="#63B95F" stroke-width="2.3" stroke-linecap="round"/>

  <g fill="#14303A">
    <text x="116" y="41" font-family="Inter, Avenir Next, Montserrat, Arial, sans-serif" font-size="29" font-weight="900" letter-spacing="1.2">AOBA DENTAL CLINIC</text>
    <text x="117" y="68" font-family="-apple-system, BlinkMacSystemFont, 'Hiragino Sans', 'Noto Sans JP', 'Yu Gothic', Meiryo, sans-serif" font-size="15" font-weight="800" letter-spacing="2.6" fill="#566E74">青葉台の予防歯科・精密治療</text>
  </g>
</svg>
