<svg xmlns="http://www.w3.org/2000/svg" viewBox="0 0 64 64" role="img" aria-label="たこ焼き 大ちゃん">
  <defs>
    <radialGradient id="b" cx="38%" cy="30%" r="72%">
      <stop offset="0" stop-color="#ffe7a0"/>
      <stop offset=".45" stop-color="#f2a838"/>
      <stop offset="1" stop-color="#b3661a"/>
    </radialGradient>
  </defs>
  <rect width="64" height="64" rx="15" fill="#e23b2e"/>
  <circle cx="32" cy="33" r="23" fill="url(#b)"/>
  <circle cx="24" cy="24" r="6" fill="#fff3cf" opacity=".55"/>
  <path d="M11 31c5-5 9-3 13.5-1.1 4.3 1.8 9 3.1 14.5-1.8 4.9-4.4 10.6-4.2 15.3-.2.3 2.2.4 4.5.1 6.7-5.2-4.4-9-3.1-13.4-.7-5.2 2.9-11.1 4.9-18.3-.1-4-2.7-7.8-3.7-12.9 1.5C12.4 38 11.5 34.5 11 31Z" fill="#7a2412"/>
  <path d="M19 22c5-4 13-5.5 21-3" fill="none" stroke="#fff7e9" stroke-width="3" stroke-linecap="round" opacity=".9"/>
  <path d="M22 41c6 3.4 13 4 21 1" fill="none" stroke="#fff7e9" stroke-width="2.6" stroke-linecap="round" opacity=".85"/>
  <g fill="#4f9d3f">
    <circle cx="23" cy="29" r="1.9"/>
    <circle cx="40" cy="26" r="1.7"/>
    <circle cx="45" cy="34" r="1.7"/>
    <circle cx="31" cy="38" r="1.6"/>
  </g>
</svg>
