<svg xmlns="http://www.w3.org/2000/svg" viewBox="0 0 96 96" role="img" aria-labelledby="title desc">
  <title id="title">たこ焼き大ちゃん ロゴマーク</title>
  <desc id="desc">たこ焼き玉とたこの足を組み合わせた丸いロゴ</desc>
  <defs>
    <radialGradient id="ball" cx="34%" cy="24%" r="74%">
      <stop offset="0" stop-color="#fff0a8"/>
      <stop offset=".44" stop-color="#f0a83a"/>
      <stop offset="1" stop-color="#a85e16"/>
    </radialGradient>
    <linearGradient id="sauce" x1="20" x2="78" y1="20" y2="72">
      <stop offset="0" stop-color="#8d2514"/>
      <stop offset="1" stop-color="#4b160d"/>
    </linearGradient>
    <filter id="shadow" x="-15%" y="-12%" width="130%" height="130%">
      <feDropShadow dx="0" dy="4" stdDeviation="3" flood-color="#5a180e" flood-opacity=".28"/>
    </filter>
  </defs>
  <circle cx="48" cy="48" r="44" fill="#fff7e9"/>
  <circle cx="48" cy="48" r="40" fill="#e23b2e"/>
  <g filter="url(#shadow)">
    <path d="M48 13c18.7 0 34 13.7 34 30.8 0 14.7-11.4 27.2-26.7 30.1-2.4.5-4.9.7-7.3.7s-4.9-.2-7.3-.7C25.4 71 14 58.5 14 43.8 14 26.7 29.3 13 48 13Z" fill="url(#ball)"/>
    <path d="M22 38c6.2-5.8 10.9-3.3 16.2-1.1 5 2.1 10.6 3.7 17.1-2.1 5.8-5.2 12.8-5.1 18.4-.3 1.1 2.8 1.7 5.9 1.5 9.1-6.1-5.6-10.2-4.2-15.3-1.4-6.1 3.4-13.1 5.8-21.6-.1-4.8-3.3-9.4-4.6-15.4 1.7-.4-2-.7-4-.9-5.8Z" fill="url(#sauce)" opacity=".92"/>
    <path d="M31 25c5.8-4.8 16.4-6.8 25.6-3.5" fill="none" stroke="#fff0a8" stroke-width="4" stroke-linecap="round" opacity=".68"/>
    <path d="M35 48c7.5 4.4 16 5.2 25.2 1.4" fill="none" stroke="#fff7e9" stroke-width="3.2" stroke-linecap="round" opacity=".86"/>
    <g fill="#3f7d3a">
      <circle cx="32" cy="34" r="2.1"/>
      <circle cx="42" cy="29" r="1.8"/>
      <circle cx="58" cy="38" r="2"/>
      <circle cx="66" cy="30" r="1.7"/>
      <circle cx="48" cy="45" r="1.8"/>
    </g>
    <g fill="#f6d79c" opacity=".9">
      <path d="M34 16l8 12-9-3Z"/>
      <path d="M56 15l-5 13 10-6Z"/>
      <path d="M68 26l-12 7 13 1Z"/>
    </g>
  </g>
  <g fill="none" stroke="#b82a1c" stroke-width="7" stroke-linecap="round">
    <path d="M30 72c-5 5-9 9-15 9"/>
    <path d="M41 76c-2 7-5 12-10 15"/>
    <path d="M55 76c2 7 5 12 10 15"/>
    <path d="M66 72c5 5 9 9 15 9"/>
  </g>
  <g fill="#ffc832">
    <circle cx="15" cy="81" r="2.3"/>
    <circle cx="31" cy="91" r="2.1"/>
    <circle cx="65" cy="91" r="2.1"/>
    <circle cx="81" cy="81" r="2.3"/>
  </g>
</svg>
